<svg width="221" height="77" viewBox="0 0 221 77" fill="none" xmlns="http://www.w3.org/2000/svg">
<path d="M55.1623 60.512C53.1356 60.512 51.4076 60.1707 49.9783 59.488C48.5703 58.8053 47.4289 57.8987 46.5543 56.768C45.6796 55.616 45.0396 54.3467 44.6343 52.96C44.2289 51.5733 44.0263 50.1867 44.0263 48.8C44.0263 47.456 44.2503 46.1013 44.6983 44.736C45.1676 43.3493 45.8609 42.08 46.7783 40.928C47.7169 39.776 48.8903 38.848 50.2983 38.144C51.7063 37.44 53.3596 37.088 55.2583 37.088C57.1996 37.088 58.8743 37.44 60.2823 38.144C61.6903 38.848 62.8423 39.7867 63.7383 40.96C64.6343 42.112 65.2956 43.3707 65.7223 44.736C66.1703 46.1013 66.3943 47.456 66.3943 48.8C66.3943 50.1227 66.1596 51.4667 65.6903 52.832C65.2423 54.1973 64.5489 55.4667 63.6103 56.64C62.6929 57.792 61.5303 58.7307 60.1223 59.456C58.7143 60.16 57.0609 60.512 55.1623 60.512ZM55.5143 58.176C56.6236 58.176 57.5516 57.9093 58.2983 57.376C59.0449 56.8213 59.6423 56.1067 60.0903 55.232C60.5383 54.3573 60.8583 53.408 61.0503 52.384C61.2423 51.3387 61.3383 50.3253 61.3383 49.344C61.3383 47.872 61.2103 46.528 60.9543 45.312C60.6983 44.096 60.3036 43.0507 59.7703 42.176C59.2369 41.28 58.5543 40.5973 57.7223 40.128C56.9116 39.6373 55.9516 39.4027 54.8423 39.424C53.7543 39.4453 52.8369 39.744 52.0903 40.32C51.3436 40.8747 50.7463 41.6 50.2983 42.496C49.8503 43.3707 49.5303 44.3307 49.3383 45.376C49.1463 46.4213 49.0503 47.4347 49.0503 48.416C49.0503 49.4187 49.1569 50.4853 49.3703 51.616C49.6049 52.7467 49.9676 53.8133 50.4583 54.816C50.9489 55.8187 51.6103 56.6293 52.4423 57.248C53.2743 57.8667 54.2983 58.176 55.5143 58.176ZM68.725 57.888C69.2157 57.8667 69.621 57.8027 69.941 57.696C70.2823 57.5893 70.5383 57.344 70.709 56.96C70.901 56.576 70.997 55.9573 70.997 55.104V42.848C70.997 42.272 71.0077 41.7173 71.029 41.184C71.0717 40.6507 71.1037 40.2453 71.125 39.968C70.7837 39.9893 70.357 40.0107 69.845 40.032C69.333 40.032 68.9597 40.0427 68.725 40.064V37.6C70.2397 37.5787 71.7543 37.568 73.269 37.568C74.7837 37.568 76.2983 37.5573 77.813 37.536C79.6903 37.5147 81.3223 37.76 82.709 38.272C84.117 38.784 85.1943 39.5733 85.941 40.64C86.709 41.7067 87.0717 43.0933 87.029 44.8C87.0077 45.6533 86.805 46.496 86.421 47.328C86.037 48.1387 85.4717 48.8853 84.725 49.568C83.9783 50.2293 83.0397 50.7733 81.909 51.2C80.7783 51.6267 79.4557 51.8613 77.941 51.904C77.4717 51.9253 77.0557 51.936 76.693 51.936C76.3517 51.936 75.9997 51.9253 75.637 51.904V54.72C75.637 55.3173 75.6263 55.8827 75.605 56.416C75.5837 56.9493 75.5517 57.3547 75.509 57.632C75.7437 57.6107 76.0423 57.6 76.405 57.6C76.7677 57.5787 77.1197 57.568 77.461 57.568C77.8237 57.5467 78.0797 57.536 78.229 57.536V60H68.725V57.888ZM75.637 49.504C75.8717 49.5253 76.1063 49.5467 76.341 49.568C76.5757 49.5893 76.821 49.6 77.077 49.6C78.2503 49.6 79.1997 49.408 79.925 49.024C80.6717 48.6187 81.2157 48.0427 81.557 47.296C81.8983 46.528 82.069 45.6 82.069 44.512C82.069 43.4453 81.9197 42.592 81.621 41.952C81.3437 41.312 80.981 40.8427 80.533 40.544C80.085 40.224 79.6157 40.0213 79.125 39.936C78.6343 39.8293 78.1863 39.776 77.781 39.776C77.333 39.776 76.949 39.8293 76.629 39.936C76.309 40.0427 76.0637 40.2773 75.893 40.64C75.7223 41.0027 75.637 41.5573 75.637 42.304V49.504ZM89.1625 60V57.888C89.6532 57.8667 90.0585 57.8027 90.3785 57.696C90.7198 57.5893 90.9758 57.344 91.1465 56.96C91.3385 56.576 91.4345 55.9573 91.4345 55.104V42.848C91.4345 42.272 91.4452 41.7173 91.4665 41.184C91.5092 40.6507 91.5412 40.2453 91.5625 39.968C91.2212 39.9893 90.7945 40.0107 90.2825 40.032C89.7705 40.032 89.3972 40.0427 89.1625 40.064V37.6H111.307V39.712C110.837 39.7333 110.432 39.7973 110.091 39.904C109.749 40.0107 109.483 40.256 109.291 40.64C109.12 41.0027 109.035 41.6213 109.035 42.496V54.752C109.035 55.328 109.024 55.8827 109.003 56.416C108.981 56.9493 108.949 57.3547 108.907 57.632C109.248 57.5893 109.675 57.568 110.187 57.568C110.72 57.5467 111.093 57.536 111.307 57.536V60H102.123V57.888C102.613 57.8667 103.019 57.8027 103.339 57.696C103.68 57.5893 103.936 57.344 104.107 56.96C104.299 56.576 104.395 55.9573 104.395 55.104V40L98.2825 40.096C97.8132 40.1173 97.4078 40.1813 97.0665 40.288C96.7465 40.3947 96.5012 40.64 96.3305 41.024C96.1598 41.408 96.0745 42.0267 96.0745 42.88V54.752C96.0745 55.328 96.0638 55.8827 96.0425 56.416C96.0212 56.9493 95.9892 57.3547 95.9465 57.632C96.2878 57.5893 96.7145 57.568 97.2265 57.568C97.7598 57.5467 98.1332 57.536 98.3465 57.536V60H89.1625ZM125.386 52.288C125.386 51.392 125.248 50.752 124.97 50.368C124.693 49.9627 124.309 49.7067 123.818 49.6C123.349 49.4933 122.826 49.4507 122.25 49.472L121.418 49.504V54.752C121.418 55.328 121.408 55.872 121.386 56.384C121.365 56.896 121.333 57.2907 121.29 57.568H125.578C126.218 57.568 126.837 57.4293 127.434 57.152C128.032 56.8533 128.522 56.3733 128.906 55.712C129.29 55.0293 129.482 54.112 129.482 52.96H131.562L131.402 60H114.506V57.888C114.997 57.8667 115.402 57.8027 115.722 57.696C116.064 57.5893 116.32 57.344 116.49 56.96C116.682 56.576 116.778 55.9573 116.778 55.104V42.848C116.778 42.272 116.789 41.7173 116.81 41.184C116.853 40.6507 116.885 40.2453 116.906 39.968C116.565 39.9893 116.138 40.0107 115.626 40.032C115.114 40.032 114.741 40.0427 114.506 40.064V37.6H130.506L130.698 43.808H128.586C128.586 42.6347 128.384 41.7493 127.978 41.152C127.573 40.5547 127.072 40.16 126.474 39.968C125.877 39.7547 125.29 39.6587 124.714 39.68L123.562 39.712C123.114 39.712 122.73 39.776 122.41 39.904C122.09 40.0107 121.845 40.2667 121.674 40.672C121.504 41.056 121.418 41.664 121.418 42.496V47.296H125.162L125.034 44.512H127.498V52.288H125.386ZM133.739 65.696V57.632H134.923C135.52 57.632 136.064 57.4613 136.555 57.12C137.046 56.7787 137.483 56.2773 137.867 55.616C138.251 54.9333 138.582 54.0907 138.859 53.088C139.158 52.0853 139.403 50.9333 139.595 49.632C139.787 48.3093 139.926 46.848 140.011 45.248C140.096 43.6267 140.128 41.8667 140.107 39.968L139.307 40L136.779 40.064V37.6H154.731V39.712C154.262 39.7333 153.846 39.7973 153.483 39.904C153.142 40.0107 152.875 40.256 152.683 40.64C152.512 41.0027 152.427 41.6213 152.427 42.496V54.752C152.427 55.328 152.416 55.8827 152.395 56.416C152.374 56.9493 152.342 57.3547 152.299 57.632L155.691 57.504V65.696H153.387C153.408 64.0107 153.27 62.6347 152.971 61.568C152.672 60.5227 152.107 60 151.275 60H138.155C137.323 60 136.758 60.5227 136.459 61.568C136.16 62.6347 136.022 64.0107 136.043 65.696H133.739ZM139.019 57.632H144.971C145.462 57.5893 145.92 57.5253 146.347 57.44C146.774 57.3333 147.126 57.088 147.403 56.704C147.68 56.32 147.819 55.7013 147.819 54.848V40L144.683 40.096C143.979 40.1173 143.446 40.256 143.083 40.512C142.72 40.7467 142.539 41.2373 142.539 41.984C142.518 44.0107 142.4 45.8453 142.187 47.488C141.995 49.1307 141.739 50.592 141.419 51.872C141.099 53.152 140.736 54.272 140.331 55.232C139.926 56.1707 139.488 56.9707 139.019 57.632ZM156.847 60V57.792C157.444 57.792 157.924 57.6213 158.287 57.28C158.649 56.9387 158.948 56.4907 159.183 55.936C159.439 55.3813 159.684 54.784 159.919 54.144L166.159 37.024H168.399L175.215 54.464C175.343 54.784 175.513 55.2747 175.727 55.936C175.94 56.576 176.068 57.1413 176.111 57.632C176.473 57.5893 176.815 57.568 177.135 57.568C177.476 57.5467 177.753 57.536 177.967 57.536V60H169.359V57.888C169.956 57.888 170.361 57.7707 170.575 57.536C170.809 57.28 170.916 56.9387 170.895 56.512C170.873 56.0853 170.756 55.6053 170.543 55.072L169.903 53.312L162.959 53.44L162.447 54.944C162.34 55.2213 162.18 55.6373 161.967 56.192C161.775 56.7253 161.593 57.1733 161.423 57.536C161.764 57.4933 162.169 57.472 162.639 57.472C163.129 57.4507 163.481 57.44 163.695 57.44V60H156.847ZM163.759 51.04H169.103L167.631 47.04C167.353 46.272 167.108 45.504 166.895 44.736C166.681 43.9467 166.521 43.2533 166.415 42.656H166.383C166.297 43.0187 166.169 43.5627 165.999 44.288C165.828 45.0133 165.561 45.8773 165.199 46.88L163.759 51.04Z" fill="#FF530D"/>
<path d="M90.7086 27C90.6766 26.8187 90.6553 26.6587 90.6446 26.52C90.634 26.3813 90.618 26.2373 90.5966 26.088C90.234 26.4507 89.8393 26.7387 89.4126 26.952C88.9966 27.1547 88.554 27.256 88.0846 27.256C87.274 27.256 86.6713 27.0747 86.2766 26.712C85.882 26.3387 85.6846 25.8853 85.6846 25.352C85.6846 24.8613 85.834 24.44 86.1326 24.088C86.442 23.7253 86.8366 23.432 87.3166 23.208C87.8073 22.9733 88.3353 22.8027 88.9006 22.696C89.4766 22.5787 90.0313 22.5253 90.5646 22.536V21.544C90.5646 21.1707 90.5326 20.8187 90.4686 20.488C90.4046 20.1573 90.266 19.8853 90.0526 19.672C89.8393 19.4587 89.498 19.3467 89.0286 19.336C88.7193 19.3253 88.3993 19.384 88.0686 19.512C87.7486 19.64 87.514 19.8587 87.3646 20.168C87.45 20.2533 87.5033 20.3547 87.5246 20.472C87.5566 20.5787 87.5726 20.68 87.5726 20.776C87.5726 20.904 87.5193 21.0533 87.4126 21.224C87.306 21.384 87.1193 21.4587 86.8526 21.448C86.6286 21.448 86.458 21.3733 86.3406 21.224C86.2233 21.064 86.1646 20.8773 86.1646 20.664C86.1646 20.3013 86.298 19.976 86.5646 19.688C86.842 19.4 87.2206 19.1707 87.7006 19C88.1806 18.8293 88.7246 18.744 89.3326 18.744C90.2286 18.744 90.89 18.984 91.3166 19.464C91.7433 19.9333 91.9513 20.68 91.9406 21.704C91.9406 22.0987 91.9406 22.4987 91.9406 22.904C91.9406 23.2987 91.9353 23.6987 91.9246 24.104C91.9246 24.4987 91.9246 24.8987 91.9246 25.304C91.9246 25.4747 91.9193 25.6453 91.9086 25.816C91.898 25.9867 91.882 26.1787 91.8606 26.392C92.0526 26.3813 92.2393 26.3707 92.4206 26.36C92.6126 26.3493 92.8046 26.3387 92.9966 26.328V27H90.7086ZM90.5646 23.08C90.202 23.0907 89.818 23.1387 89.4126 23.224C89.018 23.2987 88.65 23.416 88.3086 23.576C87.978 23.736 87.706 23.9493 87.4926 24.216C87.29 24.472 87.194 24.7867 87.2046 25.16C87.226 25.5547 87.354 25.8533 87.5886 26.056C87.834 26.248 88.122 26.344 88.4526 26.344C88.89 26.344 89.2686 26.264 89.5886 26.104C89.9193 25.9333 90.2446 25.6987 90.5646 25.4C90.554 25.2827 90.5486 25.1547 90.5486 25.016C90.5486 24.8773 90.5486 24.7333 90.5486 24.584C90.5486 24.5307 90.5486 24.36 90.5486 24.072C90.5593 23.784 90.5646 23.4533 90.5646 23.08ZM94.0946 27V26.52C94.4893 26.5093 94.7453 26.3867 94.8626 26.152C94.9906 25.9067 95.0546 25.576 95.0546 25.16V20.536C95.0546 20.344 95.06 20.1733 95.0706 20.024C95.0813 19.8747 95.0973 19.736 95.1186 19.608C94.948 19.6187 94.7773 19.6293 94.6066 19.64C94.4466 19.64 94.2813 19.6453 94.1106 19.656V19C94.3986 19 94.7666 19 95.2146 19C95.6626 18.9893 96.1533 18.984 96.6866 18.984C97.2306 18.984 97.7693 18.984 98.3026 18.984C99.0493 18.984 99.6573 19.1387 100.127 19.448C100.607 19.7467 100.841 20.2053 100.831 20.824C100.82 21.2507 100.671 21.6507 100.383 22.024C100.105 22.3867 99.6626 22.6427 99.0546 22.792C99.78 22.824 100.329 23.0213 100.703 23.384C101.076 23.736 101.263 24.184 101.263 24.728C101.263 25.208 101.135 25.6187 100.879 25.96C100.623 26.3013 100.287 26.5627 99.8706 26.744C99.4546 26.9147 99.0066 27 98.5266 27H94.0946ZM96.3986 26.344C96.516 26.3547 96.6706 26.36 96.8626 26.36C97.0653 26.36 97.252 26.36 97.4226 26.36C97.604 26.36 97.716 26.36 97.7586 26.36C98.356 26.36 98.8306 26.2373 99.1826 25.992C99.5453 25.736 99.7266 25.3307 99.7266 24.776C99.7266 24.2107 99.5293 23.8107 99.1346 23.576C98.74 23.3307 98.2813 23.208 97.7586 23.208C97.5346 23.208 97.3 23.2133 97.0546 23.224C96.82 23.224 96.612 23.2293 96.4306 23.24V25.448C96.4306 25.6507 96.4253 25.8267 96.4146 25.976C96.4146 26.1253 96.4093 26.248 96.3986 26.344ZM96.4306 22.632L97.6306 22.616C98.068 22.6053 98.4146 22.5147 98.6706 22.344C98.9266 22.1627 99.108 21.944 99.2146 21.688C99.3213 21.4213 99.3693 21.16 99.3586 20.904C99.3586 20.5307 99.2786 20.248 99.1186 20.056C98.9586 19.864 98.7506 19.736 98.4946 19.672C98.2493 19.5973 97.9826 19.56 97.6946 19.56C97.3106 19.56 97.0013 19.6293 96.7666 19.768C96.5426 19.9067 96.4306 20.2053 96.4306 20.664V22.632ZM104.038 27V26.52C104.369 26.52 104.598 26.44 104.726 26.28C104.854 26.1093 104.929 25.88 104.95 25.592C104.982 25.2933 104.998 24.952 104.998 24.568V20.696C104.998 20.4827 104.998 20.3067 104.998 20.168C105.009 20.0187 105.03 19.8533 105.062 19.672H103.926C103.5 19.672 103.185 19.7947 102.982 20.04C102.79 20.2853 102.694 20.744 102.694 21.416H102.086L102.15 19H109.222L109.302 21.416H108.694C108.684 20.744 108.582 20.2853 108.39 20.04C108.209 19.7947 107.868 19.672 107.366 19.672H106.374V25.304C106.374 25.5173 106.369 25.7093 106.358 25.88C106.358 26.04 106.342 26.2107 106.31 26.392L107.318 26.344V27H104.038ZM114.328 27.256C113.582 27.256 112.904 27.0853 112.296 26.744C111.688 26.392 111.203 25.912 110.84 25.304C110.488 24.6853 110.312 23.9813 110.312 23.192C110.312 22.3493 110.488 21.592 110.84 20.92C111.192 20.248 111.672 19.72 112.28 19.336C112.888 18.9413 113.571 18.744 114.328 18.744C115.075 18.744 115.752 18.9253 116.36 19.288C116.968 19.64 117.454 20.12 117.816 20.728C118.179 21.336 118.36 22.0293 118.36 22.808C118.36 23.6293 118.179 24.3813 117.816 25.064C117.464 25.736 116.984 26.2693 116.376 26.664C115.768 27.0587 115.086 27.256 114.328 27.256ZM114.456 26.616C115.022 26.616 115.47 26.456 115.8 26.136C116.131 25.816 116.366 25.4 116.504 24.888C116.654 24.376 116.728 23.8373 116.728 23.272C116.728 22.792 116.68 22.3227 116.584 21.864C116.499 21.3947 116.36 20.9733 116.168 20.6C115.976 20.216 115.726 19.912 115.416 19.688C115.118 19.464 114.755 19.352 114.328 19.352C113.774 19.352 113.32 19.512 112.968 19.832C112.616 20.152 112.355 20.568 112.184 21.08C112.024 21.592 111.944 22.1413 111.944 22.728C111.944 23.3893 112.035 24.0187 112.216 24.616C112.398 25.2027 112.675 25.6827 113.048 26.056C113.422 26.4293 113.891 26.616 114.456 26.616ZM119.72 27V26.52C120.05 26.52 120.28 26.44 120.408 26.28C120.536 26.1093 120.61 25.88 120.632 25.592C120.664 25.2933 120.68 24.952 120.68 24.568V20.696C120.68 20.4827 120.68 20.296 120.68 20.136C120.69 19.9653 120.712 19.7893 120.744 19.608L119.736 19.656V19H123.016V19.48C122.685 19.48 122.45 19.5653 122.312 19.736C122.184 19.896 122.109 20.1253 122.088 20.424C122.066 20.712 122.05 21.048 122.04 21.432V25.304C122.04 25.5173 122.034 25.7093 122.024 25.88C122.024 26.04 122.008 26.2107 121.976 26.392L124.072 26.36C124.402 26.3493 124.632 26.28 124.76 26.152C124.888 26.0133 124.962 25.8107 124.984 25.544C125.016 25.2773 125.037 24.952 125.048 24.568V20.696C125.048 20.4827 125.048 20.296 125.048 20.136C125.058 19.9653 125.08 19.7893 125.112 19.608L124.104 19.656V19H127.368V19.48C127.048 19.48 126.818 19.5653 126.68 19.736C126.552 19.896 126.472 20.1253 126.44 20.424C126.418 20.712 126.402 21.048 126.392 21.432V25.304C126.392 25.5173 126.386 25.7093 126.376 25.88C126.376 26.04 126.365 26.2107 126.344 26.392L128.296 26.36C128.626 26.3493 128.856 26.28 128.984 26.152C129.112 26.0133 129.186 25.8107 129.208 25.544C129.24 25.2773 129.261 24.952 129.272 24.568V20.696C129.272 20.4827 129.272 20.296 129.272 20.136C129.282 19.9653 129.304 19.7893 129.336 19.608L128.328 19.656V19H131.592V19.48C131.272 19.48 131.042 19.5653 130.904 19.736C130.776 19.896 130.701 20.1253 130.68 20.424C130.658 20.712 130.642 21.048 130.632 21.432V25.304C130.621 25.5173 130.61 25.7093 130.6 25.88C130.6 26.04 130.584 26.2107 130.552 26.392L131.56 26.344V27H119.72ZM132.841 27V26.52C133.172 26.52 133.401 26.44 133.529 26.28C133.657 26.1093 133.732 25.88 133.753 25.592C133.785 25.2933 133.801 24.952 133.801 24.568L133.817 20.696C133.817 20.4827 133.817 20.296 133.817 20.136C133.828 19.9653 133.849 19.7893 133.881 19.608C133.71 19.6187 133.54 19.6293 133.369 19.64C133.209 19.64 133.044 19.6453 132.873 19.656V19H136.137V19.48C135.817 19.48 135.588 19.5653 135.449 19.736C135.321 19.896 135.246 20.1253 135.225 20.424C135.204 20.712 135.193 21.048 135.193 21.432L135.177 22.488H135.801L137.753 20.44C137.934 20.2587 138.1 20.0987 138.249 19.96C138.398 19.8107 138.548 19.688 138.697 19.592L137.609 19.64V19H140.521V19.48C140.158 19.512 139.817 19.6293 139.497 19.832C139.188 20.024 138.9 20.2427 138.633 20.488C138.377 20.7333 138.153 20.9573 137.961 21.16L136.713 22.472C136.926 22.568 137.108 22.6907 137.257 22.84C137.406 22.9893 137.556 23.1547 137.705 23.336L138.841 24.792C138.894 24.856 138.985 24.9787 139.113 25.16C139.252 25.3413 139.412 25.5387 139.593 25.752C139.785 25.9653 139.982 26.1467 140.185 26.296C140.398 26.4453 140.596 26.52 140.777 26.52V27H139.321C139.022 27 138.74 26.8453 138.473 26.536C138.206 26.2267 137.924 25.88 137.625 25.496C137.348 25.112 137.097 24.7653 136.873 24.456C136.66 24.136 136.462 23.8587 136.281 23.624C136.11 23.3893 135.956 23.208 135.817 23.08L135.177 23.112L135.161 25.304C135.161 25.5173 135.156 25.7093 135.145 25.88C135.145 26.04 135.129 26.2107 135.097 26.392C135.268 26.3813 135.433 26.376 135.593 26.376C135.764 26.3653 135.934 26.3547 136.105 26.344V27H132.841ZM145.453 27.256C144.707 27.256 144.029 27.0853 143.421 26.744C142.813 26.392 142.328 25.912 141.965 25.304C141.613 24.6853 141.437 23.9813 141.437 23.192C141.437 22.3493 141.613 21.592 141.965 20.92C142.317 20.248 142.797 19.72 143.405 19.336C144.013 18.9413 144.696 18.744 145.453 18.744C146.2 18.744 146.877 18.9253 147.485 19.288C148.093 19.64 148.579 20.12 148.941 20.728C149.304 21.336 149.485 22.0293 149.485 22.808C149.485 23.6293 149.304 24.3813 148.941 25.064C148.589 25.736 148.109 26.2693 147.501 26.664C146.893 27.0587 146.211 27.256 145.453 27.256ZM145.581 26.616C146.147 26.616 146.595 26.456 146.925 26.136C147.256 25.816 147.491 25.4 147.629 24.888C147.779 24.376 147.853 23.8373 147.853 23.272C147.853 22.792 147.805 22.3227 147.709 21.864C147.624 21.3947 147.485 20.9733 147.293 20.6C147.101 20.216 146.851 19.912 146.541 19.688C146.243 19.464 145.88 19.352 145.453 19.352C144.899 19.352 144.445 19.512 144.093 19.832C143.741 20.152 143.48 20.568 143.309 21.08C143.149 21.592 143.069 22.1413 143.069 22.728C143.069 23.3893 143.16 24.0187 143.341 24.616C143.523 25.2027 143.8 25.6827 144.173 26.056C144.547 26.4293 145.016 26.616 145.581 26.616ZM151.453 27.176C151.069 27.176 150.77 27.1013 150.557 26.952C150.354 26.792 150.253 26.584 150.253 26.328C150.253 26.0933 150.311 25.9013 150.429 25.752C150.546 25.6027 150.722 25.5227 150.957 25.512C151.213 25.512 151.394 25.576 151.501 25.704C151.618 25.832 151.677 25.96 151.677 26.088C151.677 26.12 151.671 26.1627 151.661 26.216C151.661 26.2587 151.655 26.296 151.645 26.328C151.709 26.3493 151.757 26.36 151.789 26.36C152.002 26.36 152.226 26.1467 152.461 25.72C152.695 25.2933 152.909 24.5893 153.101 23.608C153.303 22.616 153.442 21.288 153.517 19.624L152.013 19.688V19H158.909V19.48C158.589 19.48 158.359 19.5653 158.221 19.736C158.093 19.896 158.018 20.1253 157.997 20.424C157.975 20.712 157.965 21.048 157.965 21.432V25.304C157.954 25.5173 157.943 25.7093 157.933 25.88C157.922 26.04 157.901 26.2107 157.869 26.392L158.877 26.344V27H155.613V26.52C155.943 26.52 156.173 26.44 156.301 26.28C156.429 26.1093 156.503 25.88 156.525 25.592C156.557 25.2933 156.578 24.952 156.589 24.568V20.696C156.589 20.4827 156.589 20.296 156.589 20.136C156.599 19.9653 156.621 19.7893 156.653 19.608H155.245C154.882 19.608 154.631 19.7253 154.493 19.96C154.365 20.184 154.301 20.488 154.301 20.872C154.258 21.6293 154.178 22.3813 154.061 23.128C153.954 23.8747 153.794 24.552 153.581 25.16C153.367 25.768 153.085 26.2587 152.733 26.632C152.391 26.9947 151.965 27.176 151.453 27.176ZM165.177 27C165.145 26.8187 165.124 26.6587 165.113 26.52C165.103 26.3813 165.087 26.2373 165.065 26.088C164.703 26.4507 164.308 26.7387 163.881 26.952C163.465 27.1547 163.023 27.256 162.553 27.256C161.743 27.256 161.14 27.0747 160.745 26.712C160.351 26.3387 160.153 25.8853 160.153 25.352C160.153 24.8613 160.303 24.44 160.601 24.088C160.911 23.7253 161.305 23.432 161.785 23.208C162.276 22.9733 162.804 22.8027 163.369 22.696C163.945 22.5787 164.5 22.5253 165.033 22.536V21.544C165.033 21.1707 165.001 20.8187 164.937 20.488C164.873 20.1573 164.735 19.8853 164.521 19.672C164.308 19.4587 163.967 19.3467 163.497 19.336C163.188 19.3253 162.868 19.384 162.537 19.512C162.217 19.64 161.983 19.8587 161.833 20.168C161.919 20.2533 161.972 20.3547 161.993 20.472C162.025 20.5787 162.041 20.68 162.041 20.776C162.041 20.904 161.988 21.0533 161.881 21.224C161.775 21.384 161.588 21.4587 161.321 21.448C161.097 21.448 160.927 21.3733 160.809 21.224C160.692 21.064 160.633 20.8773 160.633 20.664C160.633 20.3013 160.767 19.976 161.033 19.688C161.311 19.4 161.689 19.1707 162.169 19C162.649 18.8293 163.193 18.744 163.801 18.744C164.697 18.744 165.359 18.984 165.785 19.464C166.212 19.9333 166.42 20.68 166.409 21.704C166.409 22.0987 166.409 22.4987 166.409 22.904C166.409 23.2987 166.404 23.6987 166.393 24.104C166.393 24.4987 166.393 24.8987 166.393 25.304C166.393 25.4747 166.388 25.6453 166.377 25.816C166.367 25.9867 166.351 26.1787 166.329 26.392C166.521 26.3813 166.708 26.3707 166.889 26.36C167.081 26.3493 167.273 26.3387 167.465 26.328V27H165.177ZM165.033 23.08C164.671 23.0907 164.287 23.1387 163.881 23.224C163.487 23.2987 163.119 23.416 162.777 23.576C162.447 23.736 162.175 23.9493 161.961 24.216C161.759 24.472 161.663 24.7867 161.673 25.16C161.695 25.5547 161.823 25.8533 162.057 26.056C162.303 26.248 162.591 26.344 162.921 26.344C163.359 26.344 163.737 26.264 164.057 26.104C164.388 25.9333 164.713 25.6987 165.033 25.4C165.023 25.2827 165.017 25.1547 165.017 25.016C165.017 24.8773 165.017 24.7333 165.017 24.584C165.017 24.5307 165.017 24.36 165.017 24.072C165.028 23.784 165.033 23.4533 165.033 23.08Z" fill="#B6B6B6"/>
<path d="M49.0506 30.66C49.0105 28.3 48.7705 26.34 48.3305 24.78C47.8905 23.22 47.1105 22.06 45.9905 21.3C44.9105 20.5 43.3305 20.12 41.2505 20.16H36.1505L36.0905 52.86C36.0905 53.94 36.0705 54.88 36.0305 55.68C36.0305 56.44 35.9905 57.08 35.9105 57.6C36.7505 57.56 37.5705 57.52 38.3705 57.48C39.2105 57.44 40.0505 57.4 40.8905 57.36V60H26.7905V58.02C28.3105 57.94 29.3305 57.58 29.8505 56.94C30.4105 56.3 30.7105 55.44 30.7505 54.36C30.8305 53.24 30.8705 52 30.8705 50.64L30.9305 20.22L24.7505 20.28C22.2305 20.28 20.4505 21.12 19.4105 22.8C18.3705 24.48 17.8505 27.1 17.8505 30.66H15.6305L15.9905 18H50.9705L51.3305 30.66H49.0506Z" fill="#FF530D"/>
</svg>
