<svg width="60" height="60" viewBox="0 0 60 60" fill="none" xmlns="http://www.w3.org/2000/svg">
<path d="M55.5203 8.01285C55.2298 7.762 54.8763 7.59516 54.498 7.53032C54.1197 7.46548 53.7309 7.50509 53.3734 7.64488L5.87494 26.2332C5.20178 26.4949 4.63188 26.9683 4.25102 27.582C3.87016 28.1957 3.69897 28.9165 3.76321 29.6359C3.82746 30.3553 4.12367 31.0343 4.60724 31.5708C5.09082 32.1073 5.73558 32.4722 6.44448 32.6105L18.7515 35.0269V48.7496C18.7491 49.497 18.9712 50.228 19.3891 50.8477C19.807 51.4675 20.4014 51.9474 21.0953 52.2254C21.7881 52.5083 22.5499 52.5762 23.2818 52.4202C24.0137 52.2643 24.6818 51.8918 25.1992 51.3511L31.1335 45.1964L40.5484 53.4371C41.2276 54.0396 42.1037 54.373 43.0117 54.3746C43.4095 54.3743 43.8049 54.3118 44.1835 54.1894C44.8022 53.9931 45.3586 53.6382 45.7973 53.1599C46.2361 52.6817 46.5419 52.0968 46.6843 51.4636L56.1976 10.0777C56.2827 9.70445 56.2646 9.31509 56.1453 8.95134C56.026 8.58759 55.8099 8.26317 55.5203 8.01285ZM43.0164 50.6246L23.6382 33.6324L51.5289 13.6425L43.0164 50.6246Z" fill="black"/>
</svg>
