<svg width="60" height="60" viewBox="0 0 60 60" fill="none" xmlns="http://www.w3.org/2000/svg">
<path d="M54.9211 16.2938C54.7003 15.4297 54.2771 14.6306 53.6867 13.9623C53.0962 13.294 52.3552 12.7756 51.525 12.45C43.4906 9.34688 30.7031 9.37501 30 9.37501C29.2969 9.37501 16.5094 9.34688 8.475 12.45C7.64476 12.7756 6.90383 13.294 6.31335 13.9623C5.72286 14.6306 5.29975 15.4297 5.07891 16.2938C4.47188 18.6328 3.75 22.9078 3.75 30C3.75 37.0922 4.47188 41.3672 5.07891 43.7063C5.29942 44.5707 5.72238 45.3703 6.31289 46.0391C6.90339 46.7078 7.64449 47.2265 8.475 47.5523C16.1719 50.5219 28.2188 50.625 29.8453 50.625H30.1547C31.7812 50.625 43.8352 50.5219 51.525 47.5523C52.3555 47.2265 53.0966 46.7078 53.6871 46.0391C54.2776 45.3703 54.7006 44.5707 54.9211 43.7063C55.5281 41.3625 56.25 37.0922 56.25 30C56.25 22.9078 55.5281 18.6328 54.9211 16.2938ZM38.0203 30.7805L26.7703 38.2805C26.6291 38.3747 26.4649 38.4288 26.2954 38.437C26.1258 38.4452 25.9572 38.4073 25.8075 38.3271C25.6578 38.247 25.5327 38.1277 25.4456 37.9821C25.3584 37.8364 25.3124 37.6698 25.3125 37.5V22.5C25.3124 22.3302 25.3584 22.1636 25.4456 22.018C25.5327 21.8723 25.6578 21.753 25.8075 21.6729C25.9572 21.5928 26.1258 21.5548 26.2954 21.563C26.4649 21.5712 26.6291 21.6253 26.7703 21.7195L38.0203 29.2195C38.1489 29.3051 38.2544 29.4211 38.3273 29.5573C38.4002 29.6935 38.4384 29.8455 38.4384 30C38.4384 30.1545 38.4002 30.3065 38.3273 30.4427C38.2544 30.5789 38.1489 30.6949 38.0203 30.7805Z" fill="black"/>
</svg>
