<svg width="60" height="60" viewBox="0 0 60 60" fill="none" xmlns="http://www.w3.org/2000/svg">
<path d="M37.5 30C37.5 31.4834 37.0601 32.9334 36.236 34.1668C35.4119 35.4001 34.2406 36.3614 32.8701 36.9291C31.4997 37.4968 29.9917 37.6453 28.5368 37.3559C27.082 37.0665 25.7456 36.3522 24.6967 35.3033C23.6478 34.2544 22.9335 32.918 22.6441 31.4632C22.3547 30.0083 22.5032 28.5003 23.0709 27.1299C23.6386 25.7594 24.5999 24.5881 25.8332 23.764C27.0666 22.9399 28.5166 22.5 30 22.5C31.9891 22.5 33.8968 23.2902 35.3033 24.6967C36.7098 26.1032 37.5 28.0109 37.5 30ZM54.375 18.75V41.25C54.3713 44.7298 52.9873 48.0661 50.5267 50.5267C48.0661 52.9873 44.7298 54.3713 41.25 54.375H18.75C15.2702 54.3713 11.9339 52.9873 9.47334 50.5267C7.01273 48.0661 5.62872 44.7298 5.625 41.25V18.75C5.62872 15.2702 7.01273 11.9339 9.47334 9.47334C11.9339 7.01273 15.2702 5.62872 18.75 5.625H41.25C44.7298 5.62872 48.0661 7.01273 50.5267 9.47334C52.9873 11.9339 54.3713 15.2702 54.375 18.75ZM41.25 30C41.25 27.775 40.5902 25.5999 39.354 23.7498C38.1179 21.8998 36.3609 20.4578 34.3052 19.6064C32.2495 18.7549 29.9875 18.5321 27.8052 18.9662C25.6229 19.4003 23.6184 20.4717 22.045 22.045C20.4717 23.6184 19.4003 25.6229 18.9662 27.8052C18.5321 29.9875 18.7549 32.2495 19.6064 34.3052C20.4578 36.3609 21.8998 38.1179 23.7498 39.354C25.5999 40.5902 27.775 41.25 30 41.25C32.9827 41.2469 35.8424 40.0606 37.9515 37.9515C40.0606 35.8424 41.2469 32.9827 41.25 30ZM46.875 15.9375C46.875 15.3812 46.71 14.8375 46.401 14.375C46.092 13.9124 45.6527 13.552 45.1388 13.3391C44.6249 13.1262 44.0594 13.0705 43.5138 13.179C42.9682 13.2876 42.4671 13.5554 42.0738 13.9488C41.6804 14.3421 41.4126 14.8432 41.304 15.3888C41.1955 15.9344 41.2512 16.4999 41.4641 17.0138C41.677 17.5277 42.0374 17.967 42.5 18.276C42.9625 18.5851 43.5062 18.75 44.0625 18.75C44.8084 18.75 45.5238 18.4537 46.0512 17.9262C46.5787 17.3988 46.875 16.6834 46.875 15.9375Z" fill="black"/>
</svg>
